<?xml version="1.0" encoding="UTF-8" standalone="no"?>
<!-- Created with Inkscape (http://www.inkscape.org/) -->

<svg
   xmlns:dc="http://purl.org/dc/elements/1.1/"
   xmlns:cc="http://creativecommons.org/ns#"
   xmlns:rdf="http://www.w3.org/1999/02/22-rdf-syntax-ns#"
   xmlns:svg="http://www.w3.org/2000/svg"
   xmlns="http://www.w3.org/2000/svg"
   xmlns:sodipodi="http://sodipodi.sourceforge.net/DTD/sodipodi-0.dtd"
   xmlns:inkscape="http://www.inkscape.org/namespaces/inkscape"
   id="svg2985"
   version="1.1"
   inkscape:version="0.48.4 r9939"
   width="1200"
   height="130"
   xml:space="preserve"
   sodipodi:docname="gasfooter.svg"><metadata
     id="metadata2991"><rdf:RDF><cc:Work
         rdf:about=""><dc:format>image/svg+xml</dc:format><dc:type
           rdf:resource="http://purl.org/dc/dcmitype/StillImage" /><dc:title></dc:title></cc:Work></rdf:RDF></metadata><defs
     id="defs2989" /><sodipodi:namedview
     pagecolor="#ffffff"
     bordercolor="#666666"
     borderopacity="1"
     objecttolerance="10"
     gridtolerance="10"
     guidetolerance="10"
     inkscape:pageopacity="0"
     inkscape:pageshadow="2"
     inkscape:window-width="1444"
     inkscape:window-height="850"
     id="namedview2987"
     showgrid="false"
     inkscape:zoom="0.905097"
     inkscape:cx="561.497"
     inkscape:cy="138.012"
     inkscape:window-x="-4"
     inkscape:window-y="-3"
     inkscape:window-maximized="1"
     inkscape:current-layer="svg2985"
     fit-margin-top="0"
     fit-margin-left="0"
     fit-margin-right="0"
     fit-margin-bottom="0" /><text
     id="text2997"
     x="420"
     y="126.76001"
     style="font-size:12px"><tspan
       id="tspan2999"
       sodipodi:role="line"
       y="126.76001"
       style="font-size:15px;font-variant:normal;font-weight:normal;font-stretch:normal;writing-mode:lr-tb;fill:#00213e;fill-opacity:1;fill-rule:nonzero;stroke:none;font-family:PF Agora Sans Pro;-inkscape-font-specification:PFAgoraSansPro-Regular">Источник: BP Statistical Review of World Energy 2013</tspan></text>
<path
     d="m 533.499,34.89 133.002,0"
     style="fill:none;stroke:#00213e;stroke-width:1.25;stroke-linecap:butt;stroke-linejoin:miter;stroke-miterlimit:10;stroke-opacity:1;stroke-dasharray:none"
     id="path5237"
     inkscape:connector-curvature="0" /><path
     d="m 533.499,84.86 133.002,0"
     style="fill:none;stroke:#00213e;stroke-width:1.25;stroke-linecap:butt;stroke-linejoin:miter;stroke-miterlimit:10;stroke-opacity:1;stroke-dasharray:none"
     id="path5241"
     inkscape:connector-curvature="0" />
<g id="shareVK" class="gas_share">
     <path
     d="m 553.303,61.66 c -0.204,-0.1 -0.481,-0.12 -0.838,-0.13 -0.356,0 -0.832,0 -1.429,0 l -0.619,0 0,3.34 0.18,0 c 0.872,0 1.476,0 1.81,0 0.335,0 0.674,-0.1 1.021,-0.24 0.305,-0.13 0.527,-0.33 0.667,-0.58 0.141,-0.25 0.211,-0.54 0.211,-0.87 0,-0.41 -0.08,-0.73 -0.25,-0.96 -0.168,-0.23 -0.418,-0.41 -0.753,-0.53 M 557.38,65 c -0.25,0.5 -0.591,0.91 -1.012,1.24 -0.502,0.39 -1.054,0.67 -1.654,0.84 -0.6,0.17 -1.365,0.25 -2.289,0.25 l -5.338,0 0,-13.34 4.712,0 c 0.979,0 1.722,0 2.227,0.12 0.504,0.1 0.977,0.23 1.419,0.47 0.478,0.26 0.834,0.6 1.07,1.03 0.234,0.43 0.352,0.92 0.352,1.48 0,0.66 -0.16,1.24 -0.487,1.74 -0.326,0.51 -0.773,0.88 -1.348,1.12 l 0,0.1 c 0.825,0.18 1.483,0.53 1.98,1.07 0.495,0.53 0.743,1.25 0.743,2.16 0,0.66 -0.126,1.24 -0.375,1.75 m 1.198,-15.81 -13.994,0 c -2.506,0 -4.538,2.03 -4.538,4.53 l 0,14 c 0,2.51 2.032,4.54 4.537,4.54 l 13.994,0 c 2.508,0 4.537,-2.03 4.537,-4.54 l 0,-14 c 0,-2.5 -2.029,-4.53 -4.536,-4.53 m -6.533,10.05 c 0.232,0 0.466,-0.1 0.713,-0.18 0.269,-0.13 0.453,-0.3 0.554,-0.52 0.101,-0.22 0.152,-0.48 0.152,-0.77 0,-0.22 -0.06,-0.44 -0.167,-0.67 -0.11,-0.22 -0.28,-0.39 -0.513,-0.49 -0.22,-0.1 -0.483,-0.15 -0.786,-0.15 -0.3,0 -0.749,0 -1.346,0 l -0.235,0 0,2.82 0.424,0 c 0.572,0 0.975,0 1.204,0"
     style="fill-opacity:1;fill-rule:nonzero;stroke:none"
     id="path5229"
     inkscape:connector-curvature="0" /><rect
     style="opacity:0;fill:#ffffff;fill-opacity:1;stroke:none"

     width="32.0408"
     height="30.9359"
     x="535.854"
     y="44.9262" />
</g>
<g id="shareFB"  class="gas_share">
<path
     d="m 610.485,71.83 c 0.68,0 1.229,-0.55 1.229,-1.23 l 0,-19.83 c 0,-0.68 -0.548,-1.23 -1.226,-1.23 l -19.83,0 c -0.68,0 -1.231,0.55 -1.231,1.23 l 0,19.83 c 0,0.68 0.55,1.23 1.23,1.23 l 19.828,0 z"
     style="fill-opacity:1;fill-rule:nonzero;stroke:none"
     id="path5221"
     inkscape:connector-curvature="0" />
    <rect
     style="opacity:0;fill:#ffffff;fill-opacity:1;stroke:none"

     width="32.0408"
     height="30.9359"
     x="586.125"
     y="46.0311" />
</g><path
     d="m 604.806,71.83 0,-8.63 2.896,0 0.434,-3.36 -3.33,0 0,-2.15 c 0,-0.98 0.271,-1.64 1.669,-1.64 l 1.779,0 0,-3.01 c -0.307,0 -1.365,-0.13 -2.595,-0.13 -2.567,0 -4.327,1.57 -4.327,4.44 l 0,2.49 -2.904,0 0,3.36 2.904,0 0,8.63 3.474,0 z"
     style="fill:#ffffff;fill-opacity:1;fill-rule:nonzero;stroke:none; pointer-events:none;"
     id="path5225"
     inkscape:connector-curvature="0" />
<g id="shareTW"  class="gas_share">
     <path
     d="m 661.466,53.31 c -0.877,0.39 -1.816,0.65 -2.807,0.77 1.01,-0.61 1.784,-1.56 2.149,-2.7 -0.945,0.56 -1.99,0.96 -3.101,1.18 -0.89,-0.95 -2.161,-1.54 -3.565,-1.54 -2.697,0 -4.884,2.19 -4.884,4.88 0,0.39 0.04,0.76 0.128,1.12 -4.063,-0.21 -7.661,-2.15 -10.068,-5.11 -0.419,0.73 -0.662,1.56 -0.662,2.46 0,1.69 0.864,3.19 2.173,4.06 -0.801,0 -1.553,-0.24 -2.212,-0.61 l 0,0.1 c 0,2.36 1.683,4.33 3.918,4.78 -0.411,0.11 -0.843,0.17 -1.289,0.17 -0.313,0 -0.618,0 -0.92,-0.1 0.623,1.94 2.426,3.35 4.565,3.39 -1.673,1.31 -3.778,2.09 -6.067,2.09 -0.392,0 -0.783,0 -1.164,-0.1 2.16,1.39 4.728,2.2 7.486,2.2 8.983,0 13.894,-7.45 13.894,-13.9 0,-0.21 0,-0.42 -0.01,-0.63 0.955,-0.69 1.784,-1.55 2.438,-2.53"
     style="fill-opacity:1;fill-rule:nonzero;stroke:none"
     id="path5233"
     inkscape:connector-curvature="0" /><rect
     style="opacity:0;fill:#ffffff;fill-opacity:1;stroke:none"

     width="32.0408"
     height="30.9359"
     x="631.424"
     y="43.8214" />
</g>
   </svg>
